<svg width="18" height="19" viewBox="0 0 18 19" fill="none" xmlns="http://www.w3.org/2000/svg">
<g opacity="0.7">
<path d="M13.2188 2.75H4.78125C3.09375 2.75 2.25 3.59375 2.25 5.28125V13.7188C2.25 15.4062 3.09375 16.25 4.78125 16.25H13.2188C14.9062 16.25 15.75 15.4062 15.75 13.7188V5.28125C15.75 3.59375 14.9062 2.75 13.2188 2.75ZM9.01875 13.625C8.81984 13.626 8.62868 13.5479 8.48732 13.408C8.34597 13.268 8.26599 13.0777 8.265 12.8787C8.26401 12.6798 8.34207 12.4887 8.48202 12.3473C8.62197 12.206 8.81234 12.126 9.01125 12.125H9.01875C9.21766 12.125 9.40843 12.204 9.54908 12.3447C9.68973 12.4853 9.76875 12.6761 9.76875 12.875C9.76875 13.0739 9.68973 13.2647 9.54908 13.4053C9.40843 13.546 9.21766 13.625 9.01875 13.625ZM10.2 9.896C9.651 10.2642 9.549 10.469 9.531 10.523C9.49326 10.6346 9.42154 10.7315 9.3259 10.8002C9.23027 10.869 9.11552 10.906 8.99775 10.9062C8.93704 10.9064 8.87673 10.8965 8.81925 10.877C8.74915 10.8535 8.68436 10.8165 8.62858 10.768C8.57281 10.7195 8.52714 10.6604 8.4942 10.5943C8.46125 10.5281 8.44167 10.4561 8.43657 10.3823C8.43148 10.3086 8.44097 10.2346 8.4645 10.1645C8.69334 9.65438 9.08259 9.233 9.573 8.9645C9.80194 8.8527 9.98794 8.66896 10.1025 8.4414C10.2171 8.21384 10.254 7.955 10.2075 7.7045C10.1617 7.45935 10.0437 7.23348 9.86868 7.05587C9.69362 6.87827 9.46946 6.75704 9.225 6.70775C9.04723 6.6737 8.8641 6.67987 8.68903 6.72581C8.51396 6.77175 8.35139 6.8563 8.21325 6.97325C8.07244 7.09049 7.95915 7.23725 7.88138 7.40315C7.80361 7.56905 7.76328 7.75003 7.76325 7.93325C7.76325 8.08243 7.70399 8.22551 7.5985 8.331C7.49301 8.43649 7.34993 8.49575 7.20075 8.49575C7.05157 8.49575 6.90849 8.43649 6.803 8.331C6.69751 8.22551 6.63825 8.08243 6.63825 7.93325C6.63368 7.34234 6.85142 6.77131 7.24827 6.33348C7.64512 5.89564 8.19207 5.623 8.78058 5.56965C9.36909 5.5163 9.95615 5.68615 10.4253 6.0455C10.8944 6.40484 11.2112 6.9274 11.313 7.5095C11.3928 7.97331 11.3289 8.45042 11.13 8.87694C10.9311 9.30346 10.6066 9.65902 10.2 9.896Z" fill="#041535"/>
</g>
</svg>
