<svg width="18" height="19" viewBox="0 0 18 19" fill="none" xmlns="http://www.w3.org/2000/svg">
<g opacity="0.7">
<path d="M15.1425 13.6925L10.2 15.9875C9.82396 16.1617 9.41448 16.2519 9.00003 16.2519C8.58558 16.2519 8.1761 16.1617 7.80003 15.9875L2.85753 13.6925C2.67589 13.6083 2.52214 13.4738 2.41439 13.3051C2.30664 13.1363 2.24939 12.9402 2.24939 12.74C2.24939 12.5398 2.30664 12.3437 2.41439 12.175C2.52214 12.0062 2.67589 11.8718 2.85753 11.7875L2.96253 11.7425L7.32753 13.76C7.85051 14.0069 8.42168 14.135 9.00003 14.135C9.57837 14.135 10.1495 14.0069 10.6725 13.76L15.0375 11.7425L15.1425 11.7875C15.3242 11.8718 15.4779 12.0062 15.5857 12.175C15.6934 12.3437 15.7507 12.5398 15.7507 12.74C15.7507 12.9402 15.6934 13.1363 15.5857 13.3051C15.4779 13.4738 15.3242 13.6083 15.1425 13.6925ZM15.1425 8.54001L15.045 8.49501L11.55 10.1225L10.6725 10.5275C10.1482 10.7696 9.57756 10.895 9.00003 10.895C8.42249 10.895 7.85185 10.7696 7.32753 10.5275L6.45003 10.1225L2.95503 8.49501L2.85753 8.54001C2.67579 8.62516 2.52209 8.76032 2.41441 8.92968C2.30673 9.09904 2.24955 9.29557 2.24955 9.49626C2.24955 9.69695 2.30673 9.89348 2.41441 10.0628C2.52209 10.2322 2.67579 10.3674 2.85753 10.4525L4.29753 11.12L7.80003 12.74C8.17509 12.9178 8.58497 13.01 9.00003 13.01C9.41508 13.01 9.82496 12.9178 10.2 12.74L13.7025 11.12L15.1425 10.4525C15.3243 10.3674 15.478 10.2322 15.5856 10.0628C15.6933 9.89348 15.7505 9.69695 15.7505 9.49626C15.7505 9.29557 15.6933 9.09904 15.5856 8.92968C15.478 8.76032 15.3243 8.62516 15.1425 8.54001ZM15.1425 5.30751L10.2 3.01251C9.82362 2.83955 9.41427 2.75 9.00003 2.75C8.58578 2.75 8.17643 2.83955 7.80003 3.01251L2.85753 5.30751C2.67589 5.39177 2.52214 5.52621 2.41439 5.69497C2.30664 5.86373 2.24939 6.05978 2.24939 6.26001C2.24939 6.46024 2.30664 6.65629 2.41439 6.82505C2.52214 6.99381 2.67589 7.12825 2.85753 7.21251L2.95503 7.25751L3.62253 7.56501L4.29003 7.88001L7.80003 9.50751C8.17643 9.68047 8.58578 9.77002 9.00003 9.77002C9.41427 9.77002 9.82362 9.68047 10.2 9.50751L13.71 7.88001L14.3775 7.56501L15.045 7.25751L15.1425 7.21251C15.3242 7.12825 15.4779 6.99381 15.5857 6.82505C15.6934 6.65629 15.7507 6.46024 15.7507 6.26001C15.7507 6.05978 15.6934 5.86373 15.5857 5.69497C15.4779 5.52621 15.3242 5.39177 15.1425 5.30751Z" fill="#041535"/>
</g>
</svg>
