<svg width="18" height="19" viewBox="0 0 18 19" fill="none" xmlns="http://www.w3.org/2000/svg">
<g opacity="1">
<path d="M11.445 15.7938C11.1584 15.9248 10.8558 16.0176 10.545 16.0698L5.61751 16.9323C3.97501 17.2248 3.01001 16.5498 2.72251 14.9073L1.56751 8.34483C1.27251 6.70233 1.94701 5.73483 3.59101 5.44233L4.94101 5.20533C4.97669 5.19897 5.01338 5.20132 5.04795 5.21219C5.08253 5.22306 5.11397 5.24211 5.1396 5.26774C5.16523 5.29337 5.18428 5.32481 5.19515 5.35939C5.20601 5.39396 5.20837 5.43065 5.20201 5.46633L4.31851 10.4598C3.92101 12.7323 4.99351 14.2623 7.25851 14.6598C7.25851 14.6598 11.1728 15.3476 11.3745 15.3866C11.625 15.4316 11.6633 15.6971 11.445 15.7938ZM16.4348 5.82933L15.2775 12.3948C14.9985 13.9758 14.0858 14.6523 12.5528 14.4416C12.4943 14.4333 12.441 14.4333 12.381 14.4228L7.45651 13.5551C5.81551 13.2656 5.14051 12.3001 5.43151 10.6586L6.43576 4.94658L6.58576 4.09308C6.87526 2.45108 7.84075 1.77608 9.48225 2.06808L14.406 2.93583C16.0485 3.22333 16.7248 4.18783 16.4348 5.82933ZM11.6655 10.9248C11.6783 10.852 11.6767 10.7774 11.6607 10.7053C11.6447 10.6331 11.6146 10.5648 11.5722 10.5043C11.5298 10.4438 11.4758 10.3922 11.4135 10.3525C11.3511 10.3128 11.2816 10.2859 11.2088 10.2731L8.13376 9.73008C7.98676 9.70422 7.83551 9.73782 7.71328 9.82348C7.59106 9.90913 7.50786 10.0398 7.48201 10.1868C7.45615 10.3338 7.48974 10.4851 7.5754 10.6073C7.66106 10.7295 7.79176 10.8127 7.93876 10.8386L11.0138 11.3808C11.0459 11.3868 11.0785 11.3898 11.1113 11.3898C11.2436 11.3899 11.3717 11.3433 11.4731 11.2583C11.5744 11.1732 11.6426 11.0552 11.6655 10.9248ZM13.95 8.77608C13.9628 8.70329 13.9612 8.62869 13.9452 8.55653C13.9292 8.48437 13.8991 8.41608 13.8567 8.35555C13.8143 8.29502 13.7604 8.24345 13.698 8.20377C13.6356 8.1641 13.5661 8.13711 13.4933 8.12433L8.56726 7.25583C8.42174 7.23316 8.27314 7.26846 8.15337 7.35414C8.0336 7.43983 7.9522 7.56907 7.92667 7.71411C7.90114 7.85915 7.93351 8.00841 8.01682 8.12985C8.10013 8.25128 8.22775 8.3352 8.37226 8.36358L13.2968 9.23208C13.3289 9.23781 13.3616 9.24057 13.3943 9.24033C13.5267 9.24078 13.6551 9.19446 13.7568 9.10953C13.8584 9.0246 13.9269 8.90652 13.95 8.77608ZM14.475 6.32958C14.4878 6.25679 14.4862 6.18219 14.4702 6.11003C14.4542 6.03787 14.4241 5.96958 14.3817 5.90905C14.3393 5.84852 14.2853 5.79695 14.223 5.75727C14.1606 5.7176 14.0911 5.69061 14.0183 5.67783L9.09226 4.81008C8.94674 4.78741 8.79814 4.82271 8.67837 4.90839C8.5586 4.99408 8.4772 5.12332 8.45167 5.26836C8.42614 5.4134 8.45851 5.56266 8.54182 5.6841C8.62513 5.80553 8.75275 5.88945 8.89725 5.91783L13.8218 6.78633C13.8542 6.79202 13.8871 6.79479 13.92 6.79458C14.0525 6.79497 14.1809 6.74852 14.2824 6.66343C14.384 6.57834 14.4522 6.46009 14.475 6.32958Z" fill="#041535"/>
</g>
</svg>
