<svg width="18" height="19" viewBox="0 0 18 19" fill="none" xmlns="http://www.w3.org/2000/svg">
<g opacity="1">
<path d="M13.2225 2.75H4.785C3.0975 2.75 2.2525 3.5925 2.25 5.2775V13.715C2.25 15.405 3.095 16.25 4.785 16.25H13.2225C14.91 16.25 15.7525 15.405 15.75 13.715V5.2775C15.75 3.5925 14.9075 2.75 13.2225 2.75ZM7.3125 10.7675C7.36585 10.819 7.40827 10.8808 7.43725 10.9491C7.46623 11.0174 7.48116 11.0908 7.48116 11.165C7.48116 11.2392 7.46623 11.3126 7.43725 11.3809C7.40827 11.4492 7.36585 11.511 7.3125 11.5625C7.26096 11.6156 7.19912 11.6576 7.13077 11.686C7.06242 11.7144 6.989 11.7285 6.915 11.7275C6.84111 11.7278 6.7679 11.7133 6.69965 11.685C6.63141 11.6567 6.56948 11.615 6.5175 11.5625L4.8525 9.8975C4.74789 9.79165 4.68922 9.64882 4.68922 9.5C4.68922 9.35118 4.74789 9.20835 4.8525 9.1025L6.5175 7.4375C6.62413 7.33814 6.76517 7.28405 6.91089 7.28662C7.05662 7.28919 7.19566 7.34822 7.29872 7.45128C7.40178 7.55434 7.46081 7.69338 7.46338 7.83911C7.46595 7.98483 7.41186 8.12587 7.3125 8.2325L6.045 9.5L7.3125 10.7675ZM10.2975 6.635L8.7975 12.635C8.76645 12.7568 8.69584 12.8649 8.59676 12.9422C8.49767 13.0196 8.37571 13.0619 8.25 13.0625C8.20466 13.0612 8.15951 13.0562 8.115 13.0475C7.97023 13.011 7.84572 12.9188 7.76849 12.791C7.69126 12.6632 7.66755 12.5102 7.7025 12.365L9.2025 6.365C9.21906 6.29189 9.25003 6.22281 9.2936 6.1618C9.33718 6.1008 9.39247 6.04909 9.45626 6.0097C9.52005 5.97032 9.59105 5.94405 9.66511 5.93242C9.73917 5.9208 9.8148 5.92405 9.88759 5.942C9.96038 5.95995 10.0289 5.99223 10.089 6.03695C10.1492 6.08167 10.1998 6.13794 10.238 6.20246C10.2762 6.26699 10.3011 6.33847 10.3113 6.41274C10.3215 6.48701 10.3168 6.56257 10.2975 6.635ZM13.1475 9.8975L11.4825 11.5625C11.4305 11.615 11.3686 11.6567 11.3003 11.685C11.2321 11.7133 11.1589 11.7278 11.085 11.7275C11.011 11.7285 10.9376 11.7144 10.8692 11.686C10.8009 11.6576 10.739 11.6156 10.6875 11.5625C10.6342 11.511 10.5917 11.4492 10.5628 11.3809C10.5338 11.3126 10.5188 11.2392 10.5188 11.165C10.5188 11.0908 10.5338 11.0174 10.5628 10.9491C10.5917 10.8808 10.6342 10.819 10.6875 10.7675L11.955 9.5L10.6875 8.2325C10.5881 8.12587 10.534 7.98483 10.5366 7.83911C10.5392 7.69338 10.5982 7.55434 10.7013 7.45128C10.8043 7.34822 10.9434 7.28919 11.0891 7.28662C11.2348 7.28405 11.3759 7.33814 11.4825 7.4375L13.1475 9.1025C13.2521 9.20835 13.3108 9.35118 13.3108 9.5C13.3108 9.64882 13.2521 9.79165 13.1475 9.8975Z" fill="#041535"/>
</g>
</svg>
