<svg width="18" height="19" viewBox="0 0 18 19" fill="none" xmlns="http://www.w3.org/2000/svg">
<g opacity="1">
<path d="M15.75 10.25V14C15.7936 14.3056 15.7655 14.6172 15.6678 14.9101C15.5701 15.203 15.4057 15.4691 15.1874 15.6874C14.9691 15.9057 14.7029 16.0702 14.4101 16.1678C14.1172 16.2655 13.8056 16.2936 13.5 16.25H4.49998C4.19435 16.2936 3.88277 16.2655 3.5899 16.1678C3.29703 16.0702 3.03091 15.9057 2.81261 15.6874C2.59431 15.4691 2.42982 15.203 2.33217 14.9101C2.23451 14.6172 2.20638 14.3056 2.24998 14V10.25C2.20638 9.94437 2.23451 9.63279 2.33217 9.33992C2.42982 9.04704 2.59431 8.78092 2.81261 8.56262C3.03091 8.34432 3.29703 8.17984 3.5899 8.08218C3.88277 7.98453 4.19435 7.95639 4.49998 8H8.43748V11.1418L7.14748 9.8525C7.04085 9.75314 6.89982 9.69905 6.75409 9.70162C6.60837 9.70419 6.46933 9.76322 6.36627 9.86628C6.26321 9.96934 6.20417 10.1084 6.2016 10.2541C6.19903 10.3998 6.25312 10.5409 6.35248 10.6475L8.60248 12.8975C8.70805 13.0027 8.85098 13.0617 8.99998 13.0617C9.14899 13.0617 9.29192 13.0027 9.39748 12.8975L11.6475 10.6475C11.7468 10.5409 11.8009 10.3998 11.7984 10.2541C11.7958 10.1084 11.7368 9.96934 11.6337 9.86628C11.5306 9.76322 11.3916 9.70419 11.2459 9.70162C11.1001 9.69905 10.9591 9.75314 10.8525 9.8525L9.56248 11.1418V8H13.5C13.8056 7.95639 14.1172 7.98453 14.4101 8.08218C14.7029 8.17984 14.9691 8.34432 15.1874 8.56262C15.4057 8.78092 15.5701 9.04704 15.6678 9.33992C15.7655 9.63279 15.7936 9.94437 15.75 10.25ZM9.56248 2.75C9.56248 2.60082 9.50322 2.45774 9.39773 2.35225C9.29224 2.24676 9.14917 2.1875 8.99998 2.1875C8.8508 2.1875 8.70772 2.24676 8.60224 2.35225C8.49675 2.45774 8.43748 2.60082 8.43748 2.75V8H9.56248V2.75Z" fill="#041535"/>
</g>
</svg>
